 http://img7.imageshack.us/img7/2227/obreakingglasspicturesv.jpg

Country.......: USA
Genre.........: Horror, Comedy, Action
Date release..: 2010 [World]
Director......: Justin Timpane
Writers.......: Justin Timpane
Duration......: 88 min.
More..........: http://www.imdb.com/title/tt1748134
Trailer.......: http://www.imdb.com/video/wab/vi660642073
Trailer.......:

Pilot :
Ninjas battle Vampires for the fate of the world in this all new Action-Horror-Comedy from the creators of 2010's cult smash, "Ninjas Vs Zombies"! Moments after down-on-his-luck Aaron is rejected by the girl of his dreams, they both are attacked by blood sucking VAMPIRES. Driven to save her, Aaron tracks down the mysterious NINJAS, who wage a nightly war against the forces of darkness. Now, as the Vampire overlord Seth plots to destroy Mankind, Aaron has only one choice - join the ninjas, save the world, and get the girl... or die trying. Sexy, funny, shocking, and fun, NINJAS VS VAMPIRES delivers an action-packed comedic adventure unlike any other!

Cats :
Jay Saunders   	 ...  	Aaron
Daniel Ross 	... 	Kyle
Cory Okouchi 	... 	Cole
Devon Marie Burt 	... 	Alex
Carla Okouchi 	... 	Lily
Kurt Skarstedt 	... 	Seth
Melissa McConnell 	... 	Ann
Elizabeth Taylor 	... 	Lorna
Liz Christmas 	... 	Lorna
Daniel Mascarello 	... 	Manson
P.J. Megaw 	... 	The Bishop
Paul Sieber 	... 	Majordomo
Will Stendeback 	... 	Maximillian
Dan Guy 	... 	Manguy
Suzanne Glover 	... 	Executive Vampire 

Data Technical :
!!! SAMPLE !!!
Audio.....: English
Subtitles.: None
Format                           : AVI
Format/Info                      : Audio Video Interleave
File size                        : 980 MiB
Duration                         : 1h 28mn
Overall bit rate                 : 1 555 Kbps
Video
ID                               : 0
Format                           : MPEG-4 Visual
Format settings, BVOP            : Yes
Format settings, QPel            : No
Format settings, GMC             : No warppoints
Format settings, Matrix          : Default (H.263)
Muxing mode                      : Packed bitstream
Codec ID                         : DX50
Codec ID/Hint                    : DivX 5
Duration                         : 1h 28mn
Bit rate                         : 1 223 Kbps
Width                            : 720 pixels
Height                           : 480 pixels
Display aspect ratio             : 3:2
Frame rate                       : 29.970 fps
Standard                         : NTSC
Color space                      : YUV
Chroma subsampling               : 4:2:0
Bit depth                        : 8 bits
Scan type                        : Progressive
Bits/(Pixel*Frame)               : 0.118
Stream size                      : 771 MiB (79%)
Title                            : Video 
Writing library                  : DivX 3013
Audio
ID                               : 1
Format                           : MPEG Audio
Format version                   : Version 1
Format profile                   : Layer 3
Codec ID                         : 55
Codec ID/Hint                    : MP3
Duration                         : 1h 28mn
Bit rate mode                    : Constant
Bit rate                         : 320 Kbps
Channel(s)                       : 2 channels
Sampling rate                    : 48.0 KHz
Stream size                      : 202 MiB (21%)
Alignment                        : Split accross interleaves
Interleave, duration             : 33 ms (1.00 video frame)
Interleave, preload duration     : 500 ms
Title                            : Audio 

Screen : 
http://img193.imageshack.us/img193/1518/ninjasvsvampires2010s1.jpg 
http://img853.imageshack.us/img853/7256/ninjasvsvampires2010s2.jpg 
http://img696.imageshack.us/img696/7524/ninjasvsvampires2010s3.jpg 
http://img805.imageshack.us/img805/4315/ninjasvsvampires2010s4.jpg 
http://img20.imageshack.us/img20/1434/ninjasvsvampires2010s5.jpg